<?xml version="1.0" encoding="UTF-8" standalone="no"?>
<!-- Generator: Adobe Illustrator 25.0.0, SVG Export Plug-In . SVG Version: 6.00 Build 0)  -->

<svg
   version="1.1"
   id="Calque_1"
   x="0px"
   y="0px"
   viewBox="0 0 733.5 104"
   style="enable-background:new 0 0 733.5 104;"
   xml:space="preserve"
   sodipodi:docname="modulo-head-bannerL.svg"
   inkscape:version="1.1 (c4e8f9e, 2021-05-24)"
   xmlns:inkscape="http://www.inkscape.org/namespaces/inkscape"
   xmlns:sodipodi="http://sodipodi.sourceforge.net/DTD/sodipodi-0.dtd"
   xmlns="http://www.w3.org/2000/svg"
   xmlns:svg="http://www.w3.org/2000/svg"><defs
   id="defs90" /><sodipodi:namedview
   id="namedview88"
   pagecolor="#ffffff"
   bordercolor="#666666"
   borderopacity="1.0"
   inkscape:pageshadow="2"
   inkscape:pageopacity="0.0"
   inkscape:pagecheckerboard="0"
   showgrid="false"
   inkscape:zoom="0.90645816"
   inkscape:cx="393.28898"
   inkscape:cy="200.22987"
   inkscape:window-width="1290"
   inkscape:window-height="847"
   inkscape:window-x="0"
   inkscape:window-y="25"
   inkscape:window-maximized="0"
   inkscape:current-layer="Calque_1" />
<style
   type="text/css"
   id="style9">
	.st0{fill:#88F5DE;}
	.st1{fill:#3B7CFF;}
	.st2{fill:#8044FF;}
	.st3{fill:#FFFFFF;}
	.st4{fill:#4600DA;}
	.st5{fill:#06CCC0;}
	.st6{fill:#3A04AD;}
</style>
<path
   class="st0"
   d="M1693.5,0h-212v212h212V0z"
   id="path11" />
<path
   class="st1"
   d="M1648-0.1v85.7c0,16.1-6.4,31.5-17.8,42.8c-11.4,11.4-26.8,17.7-42.9,17.7s-31.5-6.4-42.9-17.7  c-11.4-11.4-17.8-26.8-17.8-42.8V-0.1"
   id="path13" />
<g
   id="g25">
	<path
   class="st2"
   d="M209.7-0.5H104.8v104.9h104.9V-0.5z"
   id="path15" />
	<path
   class="st3"
   d="M157.3,12.9c-10.6,0-20.8,4.2-28.3,11.7s-11.8,17.7-11.8,28.3h40.1L157.3,12.9z"
   id="path17" />
	<path
   d="M197.3,53c0-10.6-4.2-20.8-11.7-28.4c-7.5-7.5-17.7-11.7-28.3-11.8v40.1L197.3,53z"
   id="path19" />
	<path
   class="st0"
   d="M157.2,93c5.3,0,10.5-1,15.3-3c4.9-2,9.3-5,13-8.7s6.7-8.1,8.7-13s3.1-10.1,3.1-15.3h-40.1L157.2,93z"
   id="path21" />
	<path
   class="st4"
   d="M117.2,52.9c0,10.6,4.2,20.8,11.7,28.4c7.5,7.5,17.7,11.7,28.3,11.8V53L117.2,52.9z"
   id="path23" />
</g>
<g
   id="g33">
	<path
   class="st3"
   d="M314.7-0.4H209.8v104.8h104.9V-0.4z"
   id="path27" />
	<path
   class="st1"
   d="M209.7,104.4c0-27.8,11.1-54.5,30.8-74.2s46.4-30.7,74.2-30.7v104.9L209.7,104.4z"
   id="path29" />
	<path
   class="st5"
   d="M228.3,35.1c10,0,18.1-8,18.1-17.8s-8.1-17.8-18.1-17.8s-18.1,8-18.1,17.8S218.3,35.1,228.3,35.1z"
   id="path31" />
</g>
<g
   id="g43">
	<g
   id="g39">
		<path
   class="st5"
   d="M104.9-0.5H0v104.9h104.9V-0.5z"
   id="path35" />
		<path
   class="st4"
   d="M22.4,104.4V60.1c0-7.9,3.2-15.6,8.8-21.2s13.3-8.8,21.2-8.8l0,0c8,0,15.6,3.2,21.2,8.8    c5.6,5.6,8.8,13.2,8.8,21.2v44.2"
   id="path37" />
	</g>
	<path
   d="M32.8,104.3c0-2.6,0.5-5.1,1.5-7.5s2.4-4.5,4.2-6.3s4-3.2,6.3-4.2c2.4-1,4.9-1.5,7.5-1.5s5.1,0.5,7.5,1.5s4.5,2.4,6.3,4.2   c1.8,1.8,3.3,4,4.2,6.3c1,2.4,1.5,4.9,1.5,7.5H32.8z"
   id="path41" />
</g>
<g
   id="g65">
	<path
   class="st3"
   d="M629.1,0.7H523.8v103.8h105.3V0.7z"
   id="path45" />
	<path
   class="st4"
   d="M629.1,49.3H523.8v6h105.3V49.3z"
   id="path47" />
	<path
   class="st4"
   d="M629.1,61.6H523.8v6h105.3V61.6z"
   id="path49" />
	<path
   class="st4"
   d="M629.1,73.9H523.8v6h105.3V73.9z"
   id="path51" />
	<path
   class="st4"
   d="M629.1,86.1H523.8v6h105.3V86.1z"
   id="path53" />
	<path
   class="st4"
   d="M629.1,98.5H523.8v5.9h105.3V98.5z"
   id="path55" />
	<path
   class="st4"
   d="M629.1,37H523.8v6h105.3V37z"
   id="path57" />
	<path
   class="st4"
   d="M629.1,24.8H523.8v6h105.3V24.8z"
   id="path59" />
	<path
   class="st4"
   d="M629.1,12.5H523.8v5.9h105.3V12.5z"
   id="path61" />
	<path
   class="st4"
   d="M629.1,0.2H523.8v5.9h105.3V0.2z"
   id="path63" />
</g>
<g
   id="g73">
	<path
   d="M314.5,104.4h104.9V-0.5H314.5V104.4z"
   id="path67" />
	<path
   class="st0"
   d="M398.9,52.8c0-17.7-14.3-32-32-32s-32,14.3-32,32s14.3,32,32,32C384.6,84.7,398.9,70.4,398.9,52.8z"
   id="path69" />
	<path
   class="st3"
   d="M382.3,52.8c0-8.5-6.9-15.4-15.4-15.4s-15.4,6.9-15.4,15.4s6.9,15.4,15.4,15.4   C375.4,68.1,382.3,61.3,382.3,52.8z"
   id="path71" />
</g>
<g
   id="g81">
	<path
   class="st6"
   d="M419.2,104.4h104.9V-0.5H419.2L419.2,104.4z"
   id="path75" />
	<path
   class="st2"
   d="M471.7,24c29,0,52.5,27.9,52.5,27.9s-23.4,27.9-52.5,27.9c-29,0-52.5-27.8-52.5-27.8S442.7,24,471.7,24z"
   id="path77" />
	<path
   class="st3"
   d="M487,51.9c0-8.5-6.9-15.4-15.4-15.4s-15.4,6.9-15.4,15.4s6.9,15.4,15.4,15.4C480.1,67.2,487,60.4,487,51.9z"
   id="path79" />
</g>
<path
   d="M733.2,0.3H629.5V104h103.7V0.3z"
   id="path83" />
<path
   class="st5"
   d="M732.8,0.2c0,27.5-10.9,53.9-30.4,73.3c-19.4,19.4-45.8,30.4-73.3,30.4V0.2H732.8z"
   id="path85" />
<path
   style="fill:#d5d5ff;stroke-width:0.897797"
   d="M 23.066988,78.332772 C 23.340532,53.171013 23.361176,52.930879 25.671895,48.03213 30.675608,37.424204 39.44277,31.641413 51.313568,31.118967 c 6.444783,-0.283641 7.97511,-0.02892 12.77952,2.127175 6.366637,2.857177 12.666426,9.100692 15.590564,15.4513 1.849327,4.016344 1.98597,5.793575 2.278512,29.63533 L 82.27337,103.69553 H 77.442735 72.6121 L 71.500254,99.357337 C 69.282456,90.703946 61.864262,84.821312 53.036886,84.715873 c -5.703336,-0.06812 -7.922895,0.552844 -12.278277,3.435099 -3.634677,2.405317 -7.989025,9.598288 -7.989025,13.197118 0,2.24978 -0.207572,2.34744 -4.989163,2.34744 h -4.989163 z"
   id="path580" /><path
   style="fill:#d5d5ff;stroke-width:0.897797"
   d="M 419.72001,78.442294 V 53.189056 l 4.75602,4.622555 c 13.5657,13.185007 29.06557,20.975707 44.17391,22.203133 15.35077,1.247122 33.71968,-6.694353 49.38945,-21.352664 l 5.82505,-5.449045 v 25.241249 25.241246 h -52.07221 -52.07222 z"
   id="path656" /><path
   style="fill:#d5d5ff;stroke-width:0.897797"
   d="M 419.72001,24.732417 V -0.44889841 h 52.07222 52.07221 V 24.782843 50.014583 l -4.26453,-3.705958 C 511.06303,38.88992 505.00769,34.489356 498.56813,31.024321 475.07255,18.381668 451.5462,22.424681 427.43721,43.248201 l -7.7172,6.665531 z"
   id="path695" /><path
   style="fill:#d5d5ff;stroke-width:0.897797"
   d="M 105.49113,51.623317 V -0.44889841 h 52.07221 52.07222 V 51.623317 103.69553 h -52.07222 -52.07221 z m 65.01582,39.33299 c 18.22089,-5.987513 29.97433,-25.780102 26.56527,-44.735452 -3.90998,-21.740537 -23.90942,-36.4482029 -45.2082,-33.246272 -13.80731,2.075709 -25.49719,10.758539 -31.48531,23.386188 -2.61329,5.510854 -2.76733,6.435357 -2.76733,16.609241 0,10.255066 0.13834,11.066582 2.87441,16.862082 1.8709,3.962898 4.75402,7.968137 8.25828,11.472395 11.28545,11.285449 26.25992,14.746205 41.76288,9.651818 z"
   id="path734" /><path
   style="fill:#87aade;stroke-width:0.897797"
   d="M 461.43333,78.191763 C 450.1293,75.606584 436.80705,68.019204 425.69729,57.839126 l -6.09192,-5.582134 3.87296,-3.982408 c 5.92081,-6.088131 17.12055,-14.220553 24.32681,-17.664327 19.76567,-9.445745 36.95474,-7.794606 57.20557,5.495022 7.58478,4.977517 17.95594,14.209643 17.95594,15.983884 0,2.405548 -17.87255,16.480195 -26.49108,20.861747 -10.77182,5.476256 -24.82358,7.577811 -35.04224,5.240853 z m 17.27051,-12.289929 c 5.06208,-2.450513 8.35093,-7.851065 8.35093,-13.712883 0,-9.005094 -5.28859,-14.925601 -13.97608,-15.646036 -6.02502,-0.499642 -9.31442,0.793176 -13.33153,5.239635 -6.98063,7.726725 -4.34531,19.944694 5.24103,24.29859 4.80683,2.183154 8.94727,2.129025 13.71565,-0.179306 z"
   id="path849" /><path
   style="fill:#87aade;stroke-width:0.897797"
   d="m 210.79296,95.390912 c 1.76416,-27.990278 17.584,-56.468007 41.35183,-74.438579 13.28438,-10.044151 34.53933,-18.670097 49.4211,-20.05667285 3.01434,-0.28085481 6.99565,-0.70304996 8.84736,-0.93821159 l 3.36674,-0.42756653 V 51.612707 103.69553 h -51.75523 -51.75522 z"
   id="path925" /><path
   style="fill:#87aade;stroke-width:0.897797"
   d="m 148.91626,91.581999 c -6.49555,-1.412701 -9.93043,-3.045691 -16.13048,-7.668665 -7.76848,-5.792453 -14.7255,-18.569205 -14.7255,-27.043787 v -3.450636 h 19.30263 19.30263 v 19.75153 c 0,15.240759 -0.25629,19.735229 -1.12224,19.680155 -0.61724,-0.03925 -3.5994,-0.610125 -6.62704,-1.268597 z"
   id="path964" /><path
   style="fill:#87aade;stroke-width:0.897797"
   d="m 524.76224,101.45104 v -2.244492 h 52.07222 52.07221 v 2.244492 2.24449 h -52.07221 -52.07222 z"
   id="path1003" /><path
   style="fill:#87aade;stroke-width:0.897797"
   d="m 524.76224,89.330783 v -2.69339 h 52.07222 52.07221 v 2.69339 2.693391 h -52.07221 -52.07222 z"
   id="path1081" /><path
   style="fill:#87aade;stroke-width:0.897797"
   d="m 524.76224,76.761628 v -2.693391 h 52.07222 52.07221 v 2.693391 2.69339 h -52.07221 -52.07222 z"
   id="path1120" /><path
   style="fill:#87aade;stroke-width:0.897797"
   d="m 524.76224,64.641371 v -2.244492 h 52.07222 52.07221 v 2.244492 2.244492 h -52.07221 -52.07222 z"
   id="path1198" /><path
   style="fill:#87aade;stroke-width:0.897797"
   d="m 550.5739,49.154911 c 14.4433,-0.138658 38.07781,-0.138658 52.52111,0 14.44331,0.138658 2.62606,0.252106 -26.26055,0.252106 -28.88662,0 -40.70387,-0.113448 -26.26056,-0.252106 z"
   id="path1237" /><path
   style="fill:#87aade;stroke-width:0.897797"
   d="m 524.76224,52.521114 v -2.693391 h 52.07222 52.07221 v 2.693391 2.69339 h -52.07221 -52.07222 z"
   id="path1276" /><path
   style="fill:#87aade;stroke-width:0.897797"
   d="m 550.5739,36.585755 c 14.4433,-0.138658 38.07781,-0.138658 52.52111,0 14.44331,0.138658 2.62606,0.252106 -26.26055,0.252106 -28.88662,0 -40.70387,-0.113448 -26.26056,-0.252106 z"
   id="path1315" /><path
   style="fill:#87aade;stroke-width:0.897797"
   d="m 524.76224,39.951958 v -2.69339 h 52.07222 52.07221 v 2.69339 2.693391 h -52.07221 -52.07222 z"
   id="path1354" /><path
   style="fill:#87aade;stroke-width:0.897797"
   d="m 550.5739,24.914397 c 14.4433,-0.138659 38.07781,-0.138659 52.52111,0 14.44331,0.138658 2.62606,0.252105 -26.26055,0.252105 -28.88662,0 -40.70387,-0.113447 -26.26056,-0.252105 z"
   id="path1393" /><path
   style="fill:#87aade;stroke-width:0.897797"
   d="m 524.76224,27.831701 v -2.244492 h 52.07222 52.07221 v 2.244492 2.244492 h -52.07221 -52.07222 z"
   id="path1432" /><path
   style="fill:#87aade;stroke-width:0.897797"
   d="m 524.76224,15.711444 v -2.69339 h 52.07222 52.07221 v 2.69339 2.693391 h -52.07221 -52.07222 z"
   id="path1471" /><path
   style="fill:#afdde9;stroke-width:0.897797"
   d="M 524.76224,3.1422889 V 0.44889841 h 52.07222 52.07221 V 3.1422889 5.8356793 h -52.07221 -52.07222 z"
   id="path1510" /><path
   style="fill:#afdde9;stroke-width:0.897797"
   d="M 629.80447,52.143675 V 0.44889841 h 51.17442 51.17441 V 4.8202798 c 0,11.2307842 -4.70489,29.2434782 -10.81786,41.4162562 -16.37731,32.612147 -47.44949,53.339806 -85.47084,57.015974 l -6.06013,0.58594 z"
   id="path1586" /><path
   style="fill:#afdde9;stroke-width:0.897797"
   d="M 0.44889841,51.623317 V -0.44889841 H 52.521114 104.59333 V 51.623317 103.69553 H 93.882245 83.171166 L 82.884237,78.332772 82.597307,52.970012 80.076854,47.583231 C 74.929079,36.581266 64.69022,30.076193 52.521114,30.076193 c -11.920396,0 -22.437358,6.439564 -27.562287,16.876461 L 22.44492,52.072215 22.158835,77.883874 21.872748,103.69553 H 11.160824 0.44889841 Z"
   id="path1625" /><path
   style="fill:#93a7ac;stroke-width:0.897797"
   d="M 220.53641,32.626986 C 213.10016,28.946144 209.01156,19.90058 211.44766,12.519127 213.16401,7.3185357 218.11383,2.4624474 223.25455,0.93581806 234.75253,-2.478715 245.54743,5.5498508 245.54743,17.515856 c 0,5.14322 -1.35443,8.298473 -5.08218,11.839363 -5.6006,5.319857 -13.25306,6.576181 -19.92884,3.271767 z"
   id="path1664" /><path
   style="fill:#87aade;fill-opacity:1;stroke-width:0.897797"
   d="M 524.76224,3.1422889 V 0.44889841 h 52.07222 52.07221 V 3.1422889 5.8356793 h -52.07221 -52.07222 z"
   id="path5558" /><path
   style="fill:#d7eef4;fill-opacity:1;stroke-width:0.897797"
   d="m 220.18247,31.809529 c -1.85292,-0.978171 -4.47898,-3.455864 -5.83568,-5.505986 -2.02764,-3.063964 -2.46674,-4.723179 -2.46674,-9.320953 0,-4.887838 0.34634,-6.028693 2.74543,-9.0435334 1.50999,-1.8975399 4.52466,-4.3590918 6.69926,-5.4701154 12.48819,-6.380313 26.12688,4.8654419 23.1237,19.0665958 -0.8494,4.016559 -4.84593,8.646648 -9.27942,10.750481 -4.01379,1.904667 -10.89015,1.686037 -14.98655,-0.476489 z"
   id="path5597" /><path
   style="fill:#aaeeff;fill-opacity:1;stroke-width:0.897797"
   d="M 355.34977,82.056298 C 348.6752,79.490243 342.2598,73.36117 338.7213,66.169979 c -2.64711,-5.379636 -2.94104,-6.759839 -2.90326,-13.632882 0.0353,-6.4194 0.43171,-8.454031 2.46903,-12.671956 4.35817,-9.022852 11.66867,-15.039198 21.24796,-17.486484 14.01795,-3.581264 28.0565,2.799322 35.05774,15.933913 4.11651,7.722729 4.76963,17.347661 1.72568,25.431004 -2.77881,7.379214 -10.90197,15.548796 -18.15522,18.258953 -6.78784,2.53626 -16.29794,2.558676 -22.81346,0.05377 z m 18.60957,-15.394884 c 10.08656,-5.095573 11.63535,-18.210542 3.04161,-25.755947 -5.28863,-4.64348 -14.06003,-4.850373 -19.80669,-0.467185 -8.72396,6.654093 -7.27683,21.465203 2.57368,26.341109 4.93572,2.443134 9.19179,2.407751 14.1914,-0.117977 z"
   id="path5673" /><path
   style="fill:#afdde9;fill-opacity:1;stroke-width:0.897797"
   d="M 157.56334,73.147996 V 53.418911 h 19.80654 19.80654 l -0.62105,4.264535 c -1.38285,9.495396 -6.52139,19.176813 -13.26874,24.999313 -6.23514,5.380503 -12.36627,7.991845 -22.80545,9.713191 l -2.91784,0.481131 z"
   id="path5749" /><path
   style="fill:#afdde9;fill-opacity:1;stroke-width:1.10319"
   d="m 354.67716,81.066649 c -6.48842,-3.023141 -11.64027,-8.049443 -15.24651,-14.874956 -2.41974,-4.57982 -2.90685,-6.920206 -2.87013,-13.789936 0.0509,-9.524465 2.34457,-15.08418 8.81575,-21.368918 14.92399,-14.493989 38.11338,-11.123652 48.35147,7.027385 3.03693,5.384139 3.42242,7.061655 3.42242,14.89313 0,7.611209 -0.41163,9.525762 -2.99162,13.91443 -6.17674,10.506886 -14.33538,15.512912 -26.24305,16.102347 -6.67978,0.330653 -9.23046,-0.0361 -13.23833,-1.903482 z m 19.983,-14.526447 c 11.03721,-6.203262 10.78135,-22.417054 -0.43778,-27.740877 -7.52776,-3.572157 -16.75679,-1.251478 -20.8395,5.240176 -2.81048,4.468779 -2.35365,14.849421 0.81008,18.407622 5.95706,6.699806 13.23833,8.155933 20.4672,4.093079 z"
   id="path8477" /><path
   style="fill:#afdde9;fill-opacity:1;stroke-width:1.10319"
   d="M 630.47588,51.977273 V 0.55159744 h 50.8895 50.88951 L 731.5014,8.1984208 C 727.70518,46.724066 703.91354,79.298686 668.47468,94.49224 c -7.78734,3.338633 -22.32287,7.09239 -31.65543,8.17491 l -6.34337,0.7358 z"
   id="path8516" /><path
   style="fill:#afdde9;fill-opacity:1;stroke-width:1.10319"
   d="M 158.30847,72.933638 V 53.504952 h 19.38025 c 17.92899,0 19.33955,0.144569 18.83667,1.930591 -0.29897,1.061825 -0.88223,3.668123 -1.29614,5.791773 -1.23303,6.326375 -7.18974,16.409013 -12.40783,21.002164 -4.88098,4.29641 -12.84499,7.943921 -20.4668,9.373781 l -4.04615,0.759063 z"
   id="path8555" /><path
   style="fill:#afdde9;fill-opacity:1;stroke-width:1.10319"
   d="m 219.91244,30.862902 c -7.55963,-4.105993 -10.04619,-16.140451 -4.65803,-22.543921 3.91715,-4.6552678 8.17271,-6.6641887 14.11695,-6.6641887 3.99428,0 5.75043,0.6757653 8.86672,3.4119003 7.72345,6.7812774 7.96676,16.8329704 0.56924,23.5161854 -3.88134,3.506562 -5.04936,3.9563 -10.17336,3.917201 -3.18373,-0.02429 -7.10841,-0.761023 -8.72152,-1.637177 z"
   id="path8594" /></svg>
